<svg width="50" height="50" viewBox="0 0 50 50" fill="none" xmlns="http://www.w3.org/2000/svg">
<path d="M46.9465 9.15066C46.805 8.98524 46.5978 8.89008 46.3795 8.89008H11.115L9.67711 4.07109C9.58194 3.75421 9.29097 3.53748 8.96064 3.53748H3.4456C3.03256 3.53748 2.69824 3.8718 2.69824 4.28484C2.69824 4.69788 3.03256 5.0322 3.4456 5.0322H8.4036L17.4885 35.4767C17.4895 35.4802 17.4925 35.4832 17.4935 35.4867L18.622 39.3251C17.9095 40.0331 17.4681 41.0132 17.4681 42.0939C17.4681 44.2513 19.2224 46.0066 21.3783 46.0066C23.4649 46.0066 25.1694 44.3584 25.2745 42.2942H35.0695C35.069 42.3216 35.0655 42.3485 35.0655 42.3764C35.0655 44.5318 36.8188 46.2856 38.9737 46.2856C41.1286 46.2856 42.8824 44.5318 42.8824 42.3764C42.8824 40.221 41.1286 38.4672 38.9737 38.4672C37.3798 38.4672 36.0082 39.4278 35.4008 40.7994H25.0613C24.87 40.2539 24.5616 39.7521 24.1406 39.3311C23.4027 38.5932 22.4221 38.1862 21.3798 38.1862C21.3793 38.1862 21.3788 38.1862 21.3788 38.1862C20.8661 38.1862 20.3773 38.2878 19.9284 38.4682L19.206 36.0103H42.4604C42.8296 36.0103 43.1435 35.7408 43.1988 35.3761L47.1184 9.75004C47.1513 9.5348 47.0885 9.31608 46.9465 9.15066ZM38.9737 39.9624C40.3045 39.9624 41.3877 41.0456 41.3877 42.3769C41.3877 43.7082 40.3045 44.7913 38.9737 44.7913C37.6429 44.7913 36.5602 43.7082 36.5602 42.3769C36.5602 41.0456 37.6429 39.9624 38.9737 39.9624ZM21.3788 39.6814H21.3793C22.0225 39.6814 22.6274 39.9325 23.0828 40.3884C23.5387 40.8443 23.7893 41.4506 23.7893 42.0949C23.7893 43.4282 22.7076 44.5128 21.3778 44.5128C20.046 44.5128 18.9623 43.4282 18.9623 42.0949C18.9628 40.7641 20.0465 39.6814 21.3788 39.6814ZM41.8182 34.5161H18.766L17.353 29.7091C17.3351 29.6483 17.3082 29.593 17.2773 29.5407L11.561 10.3848H45.5091L41.8182 34.5161Z" fill="black"/>
</svg>
